# xmcd
#
# Track frame offsets: 
#        150
#        20400
#        35793
#        54843
#        73105
#
# Disc length: 1278 seconds
#
# Revision: 0
# Processed by: cddbd v1.5.2PL0 Copyright (c) Steve Scherf et al.
# Submitted via: ExactAudioCopyFreeDBPlugin 1.0
#
DISCID=3e04fc05
DTITLE=Katie Skene - From the River
DYEAR=2015
DGENRE=Blues
TTITLE0=Don't Let Me Down
TTITLE1=Lost Cause
TTITLE2=Get My Hands on You
TTITLE3=I Won't Beg You
TTITLE4=To the River
EXTD=
EXTT0=
EXTT1=
EXTT2=
EXTT3=
EXTT4=
PLAYORDER=
